<svg width="1440" height="342" viewBox="0 0 1440 342" fill="none" xmlns="http://www.w3.org/2000/svg">
<path opacity="0.3" d="M405.031 186.674C406.501 186.904 407.908 184.766 408.166 181.932L408.558 181.927C411.382 181.879 410.314 179.293 411.038 177.951C413.313 173.727 415.786 169.645 417.992 165.385C418.622 164.17 418.533 162.506 418.913 161.093C419.213 159.955 419.449 158.419 420.197 157.88L426.583 153.356C429.428 145.265 432.494 136.578 433.38 134.081C434.265 131.575 440.575 127.317 441.099 125.62C441.628 123.913 444.029 118.147 444.871 116.365C445.711 114.574 448.826 108.709 449.465 106.953C450.102 105.179 454.418 100.766 455.213 99.5836C456.001 98.3932 457.482 93.9414 455.611 94.3561C453.733 94.7628 449.427 97.2771 446.84 98.0753C444.259 98.8726 439.162 106.097 437.592 106.952C436.015 107.808 428.741 112.375 424.841 115.201L421.292 117.69L417.919 120.051C414.703 123.5 407.657 130.626 402.246 135.887C396.85 141.163 376.448 159.061 369.961 165.266L364.153 171.047C358.735 176.45 353.423 181.982 347.989 187.361L344.589 190.727C341.06 194.65 334.603 201.143 330.235 205.145C325.866 209.139 311.911 224.26 307.632 228.402C303.36 232.552 288.364 249.818 282.666 256.108L277.024 261.221L271.567 266.168C266.207 272.336 258.172 281.192 253.707 285.845C249.242 290.498 237.023 304.105 236.386 305.622C235.741 307.131 229.825 310.231 228.264 312.831L225.429 314.361L222.865 315.75C220.652 318.637 217.862 321.997 216.666 323.212C215.463 324.429 210.282 329.119 207.932 331.075L205.948 333.029L203.719 335.236C201.383 337.81 195.78 343.282 191.26 347.401C186.741 351.529 172.33 363.872 169.71 366.234C167.09 368.597 157.941 376.388 155.337 378.474L153.012 380.427L150.89 382.203C148.277 383.661 145.718 385.998 145.198 387.429C144.67 388.843 138.457 390.367 136.032 391.331L133.833 392.399L131.417 393.583C128.758 394.834 125.61 396.182 124.41 396.556C123.212 396.947 119.823 399.035 119.268 399.673L119.219 399.643C117.161 397.768 115.426 397.687 113.13 399.459C111.907 400.412 109.877 400.279 108.224 401.092C106.481 401.96 104.286 401.742 102.286 401.996L100.001 402.286C97.4983 402.639 93.602 402.752 91.355 402.532C89.1028 402.321 80.4206 398.68 76.5613 396.653L75.3903 391.429L74.8754 389.145C72.037 387.103 70.1128 385.22 70.5885 384.964C71.0642 384.709 71.4872 381.756 70.1468 379.152L68.3425 377.909L66.552 376.674C64.9794 374.976 63.5507 373.5 63.3621 373.382C63.1798 373.263 62.0198 371.168 60.7617 368.907C59.4962 366.639 53.1633 355.103 49.6581 348.11L48.2288 340.801L46.093 329.849C48.4197 318.481 50.5356 308.949 50.7905 308.678L50.8016 308.41L50.9522 305.998C51.0516 303.334 51.7414 299.444 52.4661 297.349L53.3423 295.535C54.3342 293.468 55.0546 291.187 55.6272 288.907L56.7982 284.246C58.8598 279.508 61.0681 272.783 61.7098 269.324L62.6548 266.279L64.6651 259.819C67.16 252.818 69.672 244.937 70.252 242.311C70.8384 239.683 71.4094 232.475 70.1715 233.111L69.2459 233.875L64.341 237.902C59.003 242.417 50.9778 249.428 46.5111 253.461C42.0455 257.503 28.5736 270.302 25.7716 271.943L23.2865 273.597L23.0424 273.752C23.49 275.353 21.8928 278.277 19.4918 280.24C17.0919 282.211 9.16334 288.412 7.61998 289.529L6.82447 289.09L1.86474 286.297C1.60216 290.665 -0.0210945 293.992 -1.73858 293.687C-3.45717 293.373 -8.81511 295.046 -10.0874 296.475C-11.3512 297.92 -15.1757 294.798 -13.6012 291.797C-12.0255 288.804 -4.33313 285.71 -6.72785 284.427L-8.09128 283.82C-9.57231 283.148 -10.9885 283.088 -10.8911 285.478L-10.7903 287.894C-12.299 287.713 -17.3798 284.271 -22.0734 280.231L-18.1838 274.844C-16.4453 272.425 -16.9402 271.211 -18.0556 268.808L-18.7356 267.352C-17.7939 264.281 -16.5634 262.573 -15.9948 263.556C-15.4252 264.547 -12.7903 266.101 -11.2292 265.123L-10.0629 263.973L-9.39729 263.339C-9.05791 262.162 -9.67039 260.883 -10.7612 260.498L-11.7317 260.098L-11.9889 259.998C-12.488 259.512 -11.507 255.23 -9.82657 250.478L-7.96249 246.261L-7.45817 245.115C-5.93732 244.479 -3.5434 243.475 -2.13206 242.888L-2.66441 240.873C-3.35102 238.3 -2.32023 237.451 -0.164829 237.355C0.558227 237.326 1.89995 236.393 1.8536 236.23C-0.0129395 229.783 6.47911 230.661 7.83513 227.307L8.30666 226.157C8.86175 224.854 10.3269 222.815 11.5553 221.649L12.6757 220.594C14.1068 219.251 15.6443 218.036 16.9629 216.566L19.6379 213.62C22.9158 210.864 27.1033 207.115 28.9245 205.297C30.7519 203.478 36.3341 198.098 38.8151 198.439L39.8034 195.025C40.4709 192.733 42.3253 190.822 43.8654 188.969C44.7292 187.92 46.011 186.667 47.1428 186.665L49.7885 186.631C51.3792 184.771 57.9678 179.263 64.4474 174.416L71.5146 173.998L74.5976 173.811C77.7652 173.125 82.0175 172.32 84.0588 172.034C86.099 171.74 94.3758 170.362 97.9091 169.364L101.185 171.403C101.336 171.482 102.079 169.375 103.519 170.744L106.196 173.285C109.272 175.882 112.379 178.422 113.092 178.917L113.049 179.241C112.165 186.463 118.671 189.529 120.713 195.28L122.203 199.471C126.48 202.97 130.406 207.348 130.924 209.197L131.558 210.34L135.365 217.232C133.711 224.675 129.516 238.452 126.038 247.838L126.469 257.472C126.481 257.719 125.959 258.015 125.998 258.223L126.61 261.621C125.238 264.756 122.949 270.489 121.525 274.366L120.446 277.978C119.437 281.333 118.855 284.855 117.838 288.193L116.806 291.569C115.431 295.183 113.855 299.789 113.314 301.816C112.772 303.827 110.424 312.191 109.353 315.917L108.202 319.211C107.539 321.13 105.56 324.289 105.783 324.482C108.528 326.802 105.63 328.747 105.666 330.755L105.707 332.7C104.413 335.276 104.564 337.021 106.039 336.585L106.946 335.876L110.725 332.959C114.269 328.954 118.459 324.265 120.041 322.54C121.617 320.815 129.512 316.125 129.799 316C130.086 315.884 131.598 314.318 133.084 312.951C134.581 311.564 139.853 305.718 142.186 303.472C144.524 301.216 152.491 293.902 154.812 292.322C157.132 290.733 161.503 283.973 161.719 283.698C161.936 283.431 163.76 282.34 165.214 281.331C166.668 280.322 171.327 275.777 172.819 274.763C174.305 273.75 177.855 269.186 178.399 268.399C178.955 267.611 181.926 266.241 182.534 265.401L183.121 264.609C184.115 263.268 185.209 262.003 186.124 260.593C188.155 257.49 192.467 257.209 193.807 253.723L195.436 249.483C198.835 247.022 202.779 243.835 204.195 242.37C205.619 240.922 210.899 236.458 212.842 235.75L212.562 232.63L212.48 231.683C214.52 230.573 217.21 229.168 218.467 228.583C219.717 227.99 223.757 223.479 225.719 221.404C227.682 219.338 235.442 210.543 239.039 206.798C242.627 203.045 254.992 189.881 258.633 185.935C262.263 181.999 275.021 168.439 278.822 164.482C282.623 160.525 294.957 147.223 297.875 143.812L300.609 140.823L300.71 140.704C301.725 141.612 303.656 140.756 304.997 138.804C306.338 136.852 310.656 132.51 312.018 132.904L312.343 132.473C314.55 129.64 315.267 125.967 318.275 123.21C320.959 120.742 324.05 118.896 326.661 116.357L329.096 114C331.739 111.36 336.668 106.613 340.049 103.453C343.428 100.276 354.093 90.8029 355.745 88.4656C357.409 86.1181 364.905 80.1583 367.106 78.5937C369.306 77.029 376.032 71.4861 377.327 70.0276L378.267 68.5165C379.302 66.8427 380.444 65.7049 382.421 65.9239L384.839 66.1755C385.366 63.99 386.175 62.3093 386.651 62.4617C387.121 62.6149 388.566 61.5361 388.827 59.7389L389.166 59.7225C392.267 59.5772 392.939 55.3964 394.706 54.9771C397.132 54.4212 399.162 51.8232 401.938 53.0135L402.203 53.1305C402.443 53.3927 403.618 52.3127 404.807 50.7346C406.002 49.1557 412.08 45.5034 413.777 44.2775C415.475 43.0603 421.124 39.0723 422.554 38.1729C423.989 37.2639 430.181 36.4871 432.404 36.267L432.812 32.8378C432.962 31.5421 435.661 30.4551 437.364 29.7337C442.638 27.5042 447.602 24.401 453.409 23.6287C455.636 23.3372 457.04 19.755 460.052 21.5359C462.979 23.2654 463.767 19.1851 465.743 18.8456L467.989 18.4455C470.587 19.0022 475.09 19.406 477.999 19.3205C480.915 19.2342 489.677 18.4414 491.041 17.4262L492.011 20.1044C492.192 20.6221 494.568 19.6736 496.289 20.0048L503.352 21.3335C507.881 27.3719 511.728 32.7966 511.892 33.3786L511.704 33.624C508.956 37.1553 512.169 39.469 513.514 41.807C515.428 45.1278 517.062 48.5728 518.817 51.9668L521.38 56.9073C525.277 61.6608 529.867 67.9839 531.584 70.9663L530.558 74.7399C529.633 78.1017 529.742 81.8466 529.385 85.4201C529.298 86.3087 529.424 87.4008 529.017 88.0464L524.289 95.49C521.855 105 518.106 117.373 515.959 122.964L512.944 127.079L509.335 131.996C505.787 137.694 502.626 142.536 502.312 142.744L502.302 142.967L501.983 151.757C496.511 158.258 491.305 165.035 490.403 166.799C489.51 168.579 484.295 175.791 481.578 179.416L480.947 183.92L480.825 184.786C480.473 185.664 478.989 188.211 477.531 190.461C476.08 192.711 469.852 202.321 467.172 207.058C464.5 211.803 455.673 226.841 453.876 230.367C452.084 233.883 445.615 245.909 444.072 249.615C442.543 253.328 437.327 264.69 436.01 266.63L434.828 268.411C432.701 271.624 430.665 274.79 429.147 278.538L428.075 281.191C425.992 283.938 423.822 287.112 423.262 288.22L423.009 289.369L422.045 293.685C419.023 298.208 416.506 302.348 416.458 302.877L416.661 303.215L416.95 303.719C417.59 304.249 416.891 307.201 415.407 310.262C413.916 313.314 408.665 322.42 407.217 323.729C405.769 325.039 406.921 331.178 406.553 332.031L406.186 332.84L402.546 340.802C400.462 350.33 398.832 358.976 398.928 359.983C399.024 360.999 400.307 364.214 401.314 363.581C402.328 362.956 406.102 362.282 407.676 362.268L409.195 361.216L412.32 359.073C416.031 357.095 422.022 353.826 425.644 351.806L428.706 349.627C430.78 348.132 432.896 347.11 434.981 345.852L437.979 344.036C439.789 345.579 441.832 346.064 442.514 345.1C443.204 344.153 444.777 341.444 444.513 341.185C444.248 340.926 443.628 339.285 444.955 339.294C446.283 339.321 449.992 339.355 450.115 339.358L450.118 338.878L450.13 336.891C451.162 335.191 453.151 332.82 454.537 331.634C455.922 330.43 463.938 325.884 468.07 321.849L469.025 321.214C469.767 320.721 471.318 321.588 471.969 321.044C472.634 320.508 472.462 318.846 473.018 317.959C473.212 317.66 474.806 317.954 475.227 318.486L476.299 319.839C477.297 321.725 479.023 322.401 480.144 321.346C481.25 320.283 483.936 317.469 483.83 317.243C483.725 317.026 482.506 316.747 481.345 317.124C480.189 317.493 477.36 317.355 477.622 316.019C477.895 314.672 482.907 312.813 485.877 312.445L486.501 308.084C486.733 306.415 490.301 303.71 490.926 304.127L494.423 306.547C495.589 303.775 498.323 300.228 500.491 298.658L500.374 297.432L499.896 292.697C502.403 294.01 505.313 293.721 506.362 292.054L507.374 290.605C508.766 288.646 511.773 288.114 513.083 286.121C514.134 284.517 517.353 289.764 516.519 284.462C516.371 283.497 519.059 282.323 519.261 280.976L519.82 277.421C522.108 277.867 524.633 277.334 525.415 276.25C526.197 275.167 529.017 273.01 529.907 273.89C530.805 274.777 533.666 269.601 535.702 267.242C537.724 264.884 543.184 258.589 543.683 258.818C544.182 259.056 546.111 258.847 545.83 257.287L545.883 256.136L545.92 255.36C546.382 254.548 547.745 254.943 548.954 256.261C550.17 257.578 552.381 251.739 554.283 251.064L553.801 247.871C553.496 245.88 557.064 251.234 557.038 246.113L557.023 242.445C559.471 244.457 561.975 246.045 562.579 245.986C563.189 245.927 565.227 244.604 564.652 243.365C564.089 242.125 563.953 238.72 565.567 238.462C567.185 238.186 570.039 231.477 572.308 228.831C574.578 226.193 582.912 221.82 582.484 219.712L583.122 219.01L585.188 216.789C587.902 215.017 591.303 212.015 592.746 210.103C594.183 208.201 600.222 206.672 600.451 205.331L600.194 205.187L597.684 203.75C598.987 202.264 601.611 199.98 603.518 198.684C605.424 197.387 609.96 192.53 610.847 192.825L611.686 192.798L613.041 192.786C614.564 191.963 615.312 191.115 614.72 190.906C614.123 190.716 613.268 189.805 614.411 189.438C615.559 189.053 618.977 187.857 619.026 185.156C619.062 182.448 624.392 178.624 624.693 179.225L624.921 180.011L625.182 180.9C625.223 181.32 625.721 180.991 626.297 180.156C626.873 179.32 628.621 176.776 628.621 176.776C628.621 176.776 628.808 175.059 629.798 173.683C630.787 172.299 634.228 168.042 635.512 167.418C636.79 166.795 637.725 162.049 638.262 161.307C638.79 160.557 643.128 157.941 645.187 155.871L647.319 155.486C650.112 154.99 649.402 151.472 649.618 151.604L655.249 154.923C655.787 149.935 658.44 143.419 661.137 140.444L663.805 137.854C665.686 136.046 666.838 131.946 670.772 134.567C671.237 134.881 673.145 133.247 673.847 132.085C676.36 127.963 679.562 124.809 683.556 122.627L683.928 122.42C685.467 124.104 686.872 124.076 687.047 122.361C687.222 120.654 691.344 116.027 692.982 114.543L695.229 115.933L695.321 115.992C695.862 115.143 695.575 113.079 694.7 111.408L696.656 112.117C699.264 113.054 700.97 112.713 701.238 110.011C701.647 105.935 703.747 104.392 706.833 104.886C710.462 105.454 707.806 100.18 710.786 100.298C712.756 100.367 714.738 99.8144 716.689 99.3719C716.957 99.3112 717.017 98.3107 717.204 97.7552L718.381 94.255C721.492 93.4346 726.346 93.2088 729.168 93.7548L728.514 89.2104C728.473 88.9408 729.817 88.327 730.576 88.1243C732.557 87.6159 735.459 88.5862 735.001 84.3715C734.973 84.1002 736.894 83.5729 737.937 83.2809C739.414 82.8541 741.697 83.6636 741.152 80.3819L741.083 79.9386C741.514 79.3787 743.836 77.0539 746.242 74.7718C748.646 72.481 758.093 71.3975 759.269 70.0781C760.453 68.7578 767.03 66.4072 770.718 66.3205L773.122 64.6413L775.61 62.9072C777.87 63.5336 780.687 63.5307 781.867 62.8934C783.058 62.2458 788.663 60.7456 791.403 59.7775L793.736 62.4511C794.105 62.8741 795.377 62.3049 796.226 62.206L799.572 61.8081C802.934 63.2608 807.906 65.5463 810.63 66.885L812.89 68.8321C815.632 71.1791 817.356 73.5665 817.432 77.5105L817.449 78.8115C818.5 80.2473 819.846 82.0887 820.437 82.8914C821.036 83.7107 823.043 92.1257 823.592 93.306L824.257 94.2411C825.774 96.4154 827.419 98.4762 828.946 100.631C829.684 101.681 829.931 105.249 829.771 106.723C829.584 108.44 827.878 110.208 830.298 111.993L830.986 112.5C830.86 114.9 830.318 116.511 829.775 116.084C829.234 115.674 827.57 115.433 827.144 116.382C826.719 117.341 826.919 120.843 827.299 123.942L827.131 126.774L826.98 129.337C825.781 131.492 823.772 134.921 822.518 136.951C821.258 138.981 821.502 146.024 820.281 146.799C819.062 147.584 817.909 155.522 815.601 160.097L814.437 164.81L812.751 171.646C810.769 179.14 809.315 186.442 809.507 187.854C809.701 189.275 806.532 190.714 806.765 191.943C807.01 193.162 802.599 199.51 800.386 205.287L801.254 211.267C801.583 213.504 799.369 213.545 799.171 214.164L797.99 217.878C797.357 222.222 797.64 226.477 798.613 227.355L796.647 228.03C796.141 228.201 795.217 228.522 795.238 228.688C795.901 234.72 792.957 239.65 791.791 245.117C791.474 246.567 791.876 248.315 792.238 249.856L792.936 252.817C795.619 252.468 799.563 251.311 801.687 250.262C803.822 249.193 811.221 247.74 813.325 249.166L814.917 245.693C815.698 243.989 817.605 242.949 818.996 241.594C819.248 241.349 823.519 238.866 823.693 239.021L824.981 240.249C826.274 239.545 827.816 236.991 828.41 234.575C828.996 232.152 834.973 234.398 835.363 233.817L835.324 233.308C834.978 229.265 838.865 230.137 839.284 230.651C842.25 234.264 843.827 230.367 845.686 229.458L847.345 228.644C848.51 226.52 849.429 224.231 849.375 223.555C849.328 222.879 848.918 220.963 849.164 220.214C849.408 219.456 850.792 217.534 851.788 217.629C852.783 217.715 856.297 216.924 857.248 217.016C858.2 217.117 860.771 216.294 860.206 214.779C859.64 213.255 859.013 208.725 860.229 208.571C861.45 208.416 864.49 207.383 864.72 206.556C864.95 205.729 866.457 205.139 867.568 207.054L869.974 204.169L871.047 202.89C872.528 201.842 875.68 199.456 878.046 197.578L877.438 193.897C877.36 193.437 878.359 192.388 878.93 192.324C879.494 192.262 880.29 193.003 880.764 193.599L881.679 194.724C882.664 196.256 884.094 196.172 884.85 194.525L885.64 193.352C886.043 192.725 887.337 192.481 887.36 191.999L887.377 191.119C887.252 190.134 887.591 189.514 888.133 189.729C888.67 189.954 890.324 189.504 889.788 187.817C889.253 186.139 888.778 182.086 890.516 184.48L891.508 184.541L892.511 184.591C893.564 183.11 896.989 178.065 900.122 173.404L903.405 169.627C904.029 168.919 905.017 169.707 905.104 171.052L905.133 171.536C904.572 172.334 905.127 172.857 906.374 172.699C907.609 172.542 910.831 171.424 910.815 170.54C910.794 169.665 911.336 166.99 912.077 166.896C912.811 166.803 915.154 165.344 915.109 163.931C915.066 162.527 915.818 158.514 916.881 158.379C917.945 158.244 921.764 156.155 922.697 154.077C923.629 152 927.314 147.18 927.89 147.204L928.413 147.368C929.443 147.681 930.975 148.754 931.386 148.347L932.859 146.928C934.095 144.91 936.178 140.594 937.483 137.344L943.306 134.672C943.791 134.442 944.543 133.62 944.457 133.4L942.305 127.743C946.046 125.141 950.279 123.274 951.697 123.599L952.822 124.254C954.26 125.091 955.157 126.839 957.209 125.063L959.963 122.692C960.01 120.124 963.288 117.669 967.259 117.236L968.812 112.749C968.845 112.647 970.659 113.764 971.235 113.443L975.293 111.155C974.832 105.85 977.06 101.614 980.259 101.731L980.388 102.291L980.976 104.796C982.514 104.494 985.188 102.861 986.895 101.155L985.152 99.5854C982.758 97.4513 984.473 96.4182 985.405 95.3426L987.467 92.9444C989.965 90.4734 993.057 89.1946 994.329 90.0969C995.615 91.0063 1000.36 89.7931 998.958 89.6247C997.56 89.4564 994.325 88.1914 994.687 87.1882C995.054 86.1754 998.697 84.5783 1001.64 85.2249L1002.27 80.8887C1002.85 77.1197 1006 79.3875 1007.7 78.2592L1008.81 77.5331C1009.98 76.3826 1011.31 76.0894 1011.77 76.8819C1012.24 77.6737 1013.99 78.4975 1014.76 77.1588C1015.54 75.8186 1013.08 73.0642 1014.7 73.1862C1016.33 73.3082 1017.4 67.9154 1018.62 67.3875C1019.86 66.8588 1023.22 65.1377 1023.38 64.8067L1023.61 64.6976C1026.35 63.4724 1030.26 65.4677 1031.96 61.5105L1033.09 58.9211C1033.95 55.8593 1036.5 55.5451 1038.74 58.2133L1038.99 51.8699C1039.09 49.1972 1041.78 45.7977 1045.76 46.0191C1046.83 46.0698 1048.03 44.6051 1048.99 43.6064C1050.2 42.3448 1051.07 40.6474 1052.35 39.5015L1056.36 35.881C1059.41 38.5606 1063.11 38.9871 1064.56 36.8081L1065.99 34.9686C1066.3 34.5659 1067.14 34.6098 1067.75 34.5946L1071.7 34.5011C1072.08 31.8914 1071.61 27.8464 1070.65 25.5038L1073.46 25.2273L1074.89 25.0807C1076.21 24.5328 1077.78 23.6419 1078.38 23.1047L1078.36 22.6287L1078.24 20.2237C1079.78 20.3831 1080.63 21.6042 1080.15 22.9337L1080.45 23.2585C1081.44 24.2945 1082.75 25.0326 1084.03 25.5525C1084.22 25.6347 1085.02 23.9462 1085.41 23.0103C1085.8 22.0561 1086.42 20.9319 1086.24 20.0421C1086.07 19.2039 1083.88 18.2491 1086.06 17.7514L1088.27 17.249C1091.05 17.5968 1093.24 16.9809 1093.16 15.8832C1093.07 14.787 1093.22 11.3289 1093.68 10.8625L1094.16 10.7753C1095.86 10.4616 1097.57 10.1559 1099.29 10.1143L1103.41 10.0087C1104.09 7.742 1105.45 5.98195 1106.46 6.10253C1107.47 6.21358 1110.21 6.22986 1111.89 4.8731L1113.49 7.51538L1113.65 7.78721C1115.68 6.77574 1118.01 4.53028 1118.82 2.80522L1119.87 2.2205L1121.54 1.28973C1123.76 1.09664 1126.54 0.54094 1127.7 0.0472743C1128.87 -0.455917 1130.19 3.22358 1130.54 3.2151C1130.89 3.21534 1133.74 2.37473 1136.25 1.68379C1138.76 0.992862 1145.29 4.27784 1143.83 4.46258C1142.38 4.64653 1141.11 7.51225 1143.58 10.4958L1146.73 6.49752C1148.08 4.78351 1153.43 7.90772 1153.29 10.3361L1153.06 14.2482C1154.16 18.1343 1156.67 23.2763 1158.64 25.6847L1160.27 28.0231C1161.93 30.4099 1163.62 32.837 1164.85 35.4909C1165.78 37.483 1167.56 40.351 1163.51 41.1126C1163.26 41.1535 1163.08 43.2591 1163.35 44.2526C1163.73 45.6585 1164.72 46.8723 1165.15 48.2805L1165.32 48.8434C1164.84 49.7104 1164.17 50.2128 1163.82 49.9468C1163.47 49.6895 1161.96 49.8815 1162.21 51.6581L1162.31 52.851L1162.53 55.4296C1161.22 57.6076 1158.98 61.1008 1157.55 63.2147C1156.12 65.3208 1154.09 72.5547 1153.65 73.0353C1153.22 73.5246 1152.54 75.543 1151.94 76.9488C1151.35 78.3721 1148.08 81.2862 1149.51 81.4331C1150.94 81.58 1151.9 85.9343 1148.76 90.8187L1148.55 96.4124C1148.47 98.5052 1146.69 95.8593 1146.32 96.1724L1145.39 96.9545C1144.69 98.2589 1143.84 100.147 1143.53 101.145C1143.2 102.135 1143.8 105.029 1142.9 105.533C1142.02 106.035 1139.86 107.683 1140.5 107.84C1141.15 107.988 1143.42 110.564 1142.95 112.947C1142.47 115.321 1137.09 118.831 1137.84 121.52L1137.56 123.781C1137.4 124.962 1135.22 126.205 1133.75 126.578C1131.74 127.107 1132.29 128.439 1131.96 129.951L1131.11 133.969C1129.58 138.152 1128.22 142.669 1128.08 144.007C1127.94 145.354 1126.52 147.875 1126.03 146.661C1125.54 145.438 1121.08 146.536 1119.69 147.669L1120.76 148.863L1122.5 150.823C1121.18 151.389 1120.16 152.459 1120.22 153.196L1120.37 153.832C1120.83 155.609 1121.46 157.338 1121.82 159.127C1122.26 161.306 1122.18 162.52 1119.82 164.097L1116.49 166.319C1117.18 171.303 1117.7 176.315 1117.66 177.465C1117.6 178.616 1116.12 182.633 1114.93 184.911C1113.75 187.189 1110.99 193.408 1111.64 193.608C1112.29 193.818 1114.13 194.915 1113.14 195.253C1112.14 195.584 1109.21 198.154 1109.23 200.102L1109.96 201.614L1110.58 202.936C1112.16 203.914 1113.1 204.912 1112.66 205.145C1112.23 205.368 1111.43 207.278 1112.79 208.374C1114.14 209.478 1117.66 211.584 1118.05 210.96C1118.43 210.343 1119.96 208.961 1120.43 209.505C1120.9 210.065 1124.36 210.912 1126.57 209.612C1128.78 208.312 1134.24 204.012 1135.11 205.399C1135.99 206.794 1139.52 204.795 1139.17 204.458C1138.83 204.129 1139.48 201.964 1141.92 200.936C1144.37 199.907 1151.11 197.82 1150.93 198.79C1150.76 199.77 1151.15 202.512 1152.39 201.761C1153.62 201.011 1156.34 198.849 1155.95 198.464C1155.54 198.082 1154.16 196.147 1155.19 196.371C1156.2 196.588 1158.55 197.079 1158.99 197.165C1159.43 197.233 1161.96 196.709 1163.64 195.796C1165.32 194.891 1167.92 191.006 1166.54 189.718C1165.16 188.44 1169.2 186.686 1170.39 188.83L1172.79 189.227L1173.03 189.267C1173.33 189.61 1174.09 188.025 1174.72 185.737C1175.35 183.459 1181.68 181.025 1183.16 180.641C1184.64 180.259 1187.99 176.119 1188.82 175.198C1189.64 174.278 1193.79 176.279 1194.85 178.795L1197.5 175.888L1198.52 174.765C1200.99 174.15 1200.85 173.45 1198.22 173.207L1196.78 172.255L1196.06 171.788C1196.08 169.508 1197.14 167.44 1198.43 167.197L1198.9 167.617L1202.8 171.181C1203.18 167.552 1205.16 166.131 1207.21 168.016L1210.14 166.004L1212.13 164.643C1215.22 164.73 1218 164.714 1218.32 164.594C1218.64 164.491 1220.93 158.943 1222.07 157.38L1223.42 156.438C1223.9 156.094 1225.86 156.997 1225.97 157.577L1226.55 160.818C1228.38 159.948 1231.18 157.75 1232.77 155.935C1234.35 154.111 1238.67 149.68 1238.95 150.151C1239.22 150.63 1239.89 150.137 1239.59 147.613L1241.45 145.746C1242.45 144.741 1241.04 141.294 1243.87 142.159C1244.65 142.397 1244.94 144.701 1245.53 146.018L1245.76 146.556C1246.12 146.98 1246.95 145.04 1247.6 142.254L1248.71 139.993L1250.17 137.043C1253.01 139.146 1255.89 141.467 1256.56 142.189L1257.17 142.192C1258.65 142.181 1258.42 141.714 1257.95 140.08L1257.47 138.421C1258.45 136.25 1260.42 133.739 1261.87 132.846C1263.32 131.953 1268.07 129.081 1269.39 128.07C1270.71 127.042 1274.84 124.48 1275.77 125.204C1276.7 125.928 1279.1 127.6 1279.25 127.475C1279.4 127.35 1279.5 126.397 1279.12 125.621C1278.75 124.844 1278.73 122.408 1280.25 122.571C1281.75 122.726 1285.88 122.495 1285.3 121.636C1284.72 120.761 1284.67 117.666 1286.12 116.179L1287.49 115.428C1288.23 115.024 1290.05 115.245 1290.28 115.775C1291.07 117.571 1290.35 118.735 1288.45 118.826L1288.09 118.845C1287.4 119.801 1289.28 121.425 1292.26 122.456L1292.46 117.839C1292.52 116.395 1293.12 114.98 1293.63 113.621L1294.98 109.931C1297.82 110.199 1301.36 110.619 1302.85 110.855L1304.19 110.862L1304.55 110.871C1304.99 110.15 1304.86 109.439 1304.26 109.284C1303.66 109.131 1301.97 107.909 1302.7 107.133C1303.44 106.366 1305.97 104.964 1306.31 106.135C1306.65 107.315 1307.65 110.025 1307.87 109.917C1308.09 109.8 1309.17 107.287 1309.81 104.582L1312.86 107.555L1313.28 107.963C1315.74 106.205 1316.22 104.309 1314.36 103.757L1313.42 103.052C1313.04 102.763 1313.22 100.639 1313.27 100.633C1316 100.384 1318.75 100.248 1321.49 100.219C1321.59 100.215 1321.68 101.401 1321.87 101.979L1321.96 102.242C1322.42 102.557 1323.39 101.512 1324.13 99.9281C1324.88 98.3444 1328.28 94.4115 1329.73 95.3263L1330.84 96.1781L1332.04 97.0988C1333.46 98.3904 1335.01 98.4942 1335.51 97.3416C1335.98 96.1819 1338.25 93.8818 1339.71 94.1658L1340.97 94.2098C1341.09 94.2128 1341.42 92.4957 1341.25 91.6844L1341.04 90.7534C1340.41 89.8223 1340.69 88.8827 1341.66 88.6796L1342.21 89.0619C1343.48 89.9737 1345.19 91.2633 1345.76 89.3919C1346.99 85.326 1350.84 86.0791 1353.03 83.8148L1355.68 81.0857C1356.37 84.0205 1357.34 85.5286 1357.83 84.4204C1358.33 83.3202 1360.7 80.7581 1361.2 82.9825L1360.81 83.4757C1359.44 85.1469 1360 86.1757 1361.49 86.8817C1362.4 87.3158 1364.28 87.6174 1364.38 87.3396L1365.91 82.9869C1369.74 81.7307 1373.44 79.3196 1374.14 77.6169L1375.2 76.6578L1376.17 75.7821C1377.71 75.4798 1380.16 74.6636 1381.62 73.9735C1383.07 73.2755 1388.22 72.7812 1390.87 71.8512L1392.8 74.7881C1393.31 75.548 1395.4 76.1603 1395.71 75.7846L1397.63 73.3509C1400.15 74.0236 1403.64 74.0863 1405.38 73.4847C1407.12 72.8909 1413.4 76.5975 1415.87 77.6756C1418.34 78.7633 1425.56 76.553 1426.33 76.9873L1427.07 77.4073L1432.47 80.4014C1438.41 83.6801 1444.2 87.4843 1445.32 88.8414C1446.44 90.2144 1449.38 94.8766 1450.32 95.4042C1451.27 95.931 1450.4 99.0738 1450.39 99.2523C1450.37 99.4133 1450.65 103.314 1451.15 107.63L1452.39 111.275C1453.04 113.161 1454.77 114.599 1455.99 116.262L1457.21 117.915C1458.67 119.937 1459.23 122.695 1458.46 124.042L1457.39 124.559L1455.62 125.413C1455.18 123.58 1454.22 122.089 1453.47 122.104L1453.19 122.477C1452.93 122.811 1453.42 124.15 1453.25 124.225L1452.35 124.64C1451.28 124.864 1450.5 124.627 1450.62 124.097C1450.74 123.585 1449.83 122.53 1448.34 122.942C1446.83 123.363 1444.19 118.584 1442.81 118.191C1441.44 117.789 1438.28 113.181 1437.29 112.438C1436.3 111.695 1432.94 110.765 1432.35 111.124C1431.75 111.483 1429.7 111.566 1429.13 110.424L1428.47 109.489C1428.4 109.4 1427.43 110.313 1426.81 110.426L1425.85 110.601C1424.75 110.528 1421.75 110.119 1419.2 109.69C1416.64 109.27 1408.02 109.982 1405.57 110.675C1403.11 111.377 1396.14 113.733 1395.5 114.106C1394.85 114.482 1391.74 115.107 1390.12 114.949C1388.5 114.801 1383.21 117.83 1380.44 117.418L1379.13 120.67C1379.05 120.875 1378.65 121.031 1378.42 120.999L1375.14 120.662C1371.52 120.553 1367.77 121.756 1366.79 123.353C1365.81 124.948 1358.78 128.535 1355.6 130.126L1352.82 131.774C1351.89 132.317 1349.87 128.283 1349.94 132.689C1349.99 135.741 1347.41 134.251 1346.05 134.875L1344.57 135.55C1342.94 136.246 1340.49 136.335 1339.11 135.738C1337.73 135.142 1333.91 139.634 1332.69 140.4C1331.47 141.158 1325.82 143.967 1323.09 145.147L1320.77 146.54C1316.6 149.056 1311.25 149.477 1308.6 154.866L1308.25 155.575C1306.7 155.604 1303.42 155.842 1300.97 156.091L1299.7 158.77L1299.28 159.666C1298.05 160.141 1296.09 160.736 1294.91 161.001C1293.73 161.257 1290.99 164.397 1290.43 164.937C1289.88 165.477 1283.72 168.289 1278.2 170.549L1274.35 174.992C1274.13 175.232 1271.81 171.954 1271.74 176.164L1271.72 177.497C1269.5 178.763 1265.19 181.091 1262.14 182.658C1259.08 184.225 1250.14 188.87 1248.7 188.965C1247.26 189.058 1243.64 191.884 1241.76 193.151C1239.88 194.428 1234.66 198.556 1234.03 199.052C1233.39 199.55 1230.01 200.413 1228.01 200.854C1226.01 201.293 1221.15 205.518 1219.4 205.686C1217.66 205.845 1211.16 212.45 1206.79 215.762L1201.55 212.623L1201.25 212.448C1200.65 212.932 1198.48 214.546 1196.44 216.038L1195.31 218.379C1193.44 222.269 1188.72 220.041 1186.08 223.611L1184.1 226.265C1180.13 227.521 1175.13 229.37 1172.97 230.372L1171 231.251L1167.87 232.632C1166.34 231.381 1164.61 231.902 1164 233.779C1163.4 235.655 1158.31 233.49 1157.73 233.512L1157.68 233.704C1157.37 235.046 1158.09 237.411 1155.92 236.95L1154.37 236.623C1152.68 235.198 1151.18 234.776 1151.04 235.699C1150.89 236.622 1146.33 238.406 1141.6 239.564L1137.66 238.522C1134.64 237.718 1133.92 241.913 1131.15 240.243L1128.82 238.829C1125.91 238.001 1122.45 237.208 1121.12 237.049C1119.79 236.881 1115.72 235.943 1114.99 235.655C1114.26 235.375 1111.49 232.101 1110.04 229.581L1108.92 229.644L1105.28 229.839C1105.57 227.383 1103.81 222.243 1101.37 218.403L1098.83 215.215L1096.16 211.849C1094.39 207.188 1092.8 203.029 1092.62 202.626C1092.44 202.214 1091.89 198.747 1091.19 195.14L1090.91 191.736L1090.44 186.131C1091.41 182.126 1092.63 177.255 1093.17 175.332L1091.49 175.12C1086.95 174.562 1088.5 172.37 1090.19 170.374C1092.72 167.376 1094.62 163.847 1096.95 160.758C1099.67 157.168 1098.37 153.646 1098 149.978L1097.96 149.602C1097.29 149.245 1096.16 148.448 1095.45 147.838C1094.75 147.218 1097.67 144.356 1098.47 143.58L1098.83 142.683L1099.91 139.984C1101.11 136.455 1102.52 134.76 1103.05 136.227L1103.39 137.035C1103.85 138.181 1100.38 139.136 1103.31 140.2C1103.73 140.351 1104.69 138.943 1105.23 138.105C1105.68 137.4 1105.87 136.481 1106.17 135.654L1107.58 131.787C1104.36 130.449 1102.6 129.085 1103.67 128.773C1104.73 128.451 1107.52 127.131 1106.63 126.81C1105.73 126.498 1104.38 125.163 1104.98 124.334C1105.57 123.505 1108.61 122.508 1108.39 120.754C1108.17 119 1108.2 113.287 1109.25 114.341C1110.31 115.395 1111.9 116.124 1111.24 114.409C1110.57 112.694 1112.91 108.275 1113.23 108.5C1113.56 108.724 1115.03 108.919 1115.03 107.943C1115.03 106.977 1114.36 104.225 1113.54 105.039L1113.01 105.141C1112.54 105.237 1111.5 104.669 1111.51 104.605L1111.91 102.586C1112.5 100.473 1113.9 96.6424 1115.04 94.0783C1116.16 91.4976 1121.01 81.9739 1122.64 77.8217L1123.25 73.6488L1123.55 71.528C1124.35 69.361 1125.79 67.1654 1126.75 66.6451C1127.71 66.1247 1128.56 63.7912 1128.88 64.8235C1129.2 65.855 1130.36 67.1621 1130.73 65.4132C1131.1 63.6729 1129.01 59.5147 1130.3 59.2707C1131.6 59.0259 1135.42 56.4846 1136.54 54.8978L1136.2 53.9306C1134.95 50.3565 1134.53 54.7622 1133.8 54.3588C1133.22 54.0424 1132.51 52.4395 1132.72 52.1298L1133.64 50.7361C1134.95 49.4529 1137.1 47.8146 1138.41 47.116L1139.42 46.1998C1139.95 45.7159 1140.43 44.0595 1140.21 43.8481C1139.17 42.7915 1137.44 42.3286 1136.83 41.1301L1136.35 40.1892C1136.92 38.4947 1136.43 36.8542 1135.27 36.5585L1135.07 36.9023C1133.51 39.6805 1130.76 40.4368 1128.66 42.1306C1126.4 43.9595 1123.24 39.3881 1121.97 44.1854C1120.94 48.0654 1117.03 46.2042 1114.52 47.2576C1113.58 47.6526 1112.84 48.739 1112.14 49.6523C1110.12 52.2757 1107.63 53.602 1104.56 54.4882C1101.84 55.2588 1099.18 57.1304 1097.07 59.251L1093.28 63.0646C1088.55 66.6426 1083.86 68.9132 1082.86 68.1009C1081.86 67.2973 1078.75 65.4404 1079.12 66.5361C1079.51 67.6398 1080.36 70.5807 1080.27 70.9203L1079.9 71.0479L1073.22 73.3041C1068.01 79.1072 1060.58 86.7074 1056.7 90.2047L1052.46 91.9923C1050.44 92.8427 1051.48 94.5546 1050.77 95.541C1050.15 96.3907 1049.01 96.7828 1048.07 97.319C1044.93 99.1183 1041.53 100.552 1039.95 104.547L1039.75 105.014C1039.17 105.336 1036.84 106.509 1034.59 107.62C1032.32 108.732 1024.65 116.947 1021.39 120.961L1017.67 123.082L1007.49 128.877C998.424 138.076 988.837 147.688 986.19 150.24C983.537 152.802 975.035 160.112 974.02 162.05L972.688 162.6L969.368 163.961C967.137 167.063 964.521 170.932 963.552 172.571C962.583 174.21 955.536 176.203 952.76 178.408C949.997 180.611 943.066 190.364 941.577 192.362C940.081 194.36 933.342 198.025 932.271 198.915C931.193 199.796 925.913 206.388 922.287 210.961L918.006 213.366L915.472 214.787C914.526 217.017 912.84 219.491 911.719 220.289C910.598 221.088 907.629 224.204 907.163 224.786C906.704 225.376 904.596 226.654 903.474 227.701C902.353 228.747 897.889 231.432 895.627 233.022L893.98 235.049L890.715 239.071C886.632 242.931 882.854 246.566 882.33 247.147C881.792 247.729 877.857 249.461 875.315 250.36L873.285 251.699L871.461 252.888C869.774 254.795 866.856 257.603 864.98 259.144L863.281 260.556C861.365 262.129 858.263 263.383 857.832 265.414L857.153 268.577C855.238 268.642 851.828 269.899 849.577 271.373C847.325 272.838 837.426 279.422 832.498 282.609L827.667 283.417L822.521 284.274C817.487 286.42 808.286 288.934 802.068 289.857L796.792 287.06L795.137 286.18C794.256 286.743 792.465 286.616 791.146 285.906L790.495 285.084C788.79 282.951 787.385 285.967 786.832 285.31L784.801 282.89C782.918 279.858 780.751 275.656 779.988 273.546C779.225 271.435 774.155 267.673 773.494 267.181L773.522 266.796C773.822 262.467 770.918 260.212 768.897 257.206C766.985 254.355 766.325 250.529 764.613 247.475L762.161 243.106C761.308 237.807 760.175 229.733 759.639 225.156L761.124 221.705C762.902 217.57 762.678 213.574 762.952 209.293L763.184 205.647C765.429 201.851 768.649 199.448 770.326 200.299L770.798 198.032L771.216 196.002C770.951 193.66 770.607 189.785 770.462 187.375L772.479 186.241L773.182 185.851C774.658 185.619 774.971 184.542 773.854 183.443L773.027 183.007L772.066 182.482C770.771 182.158 771.131 181.501 772.874 181.041C774.623 180.579 776.957 176.214 776.032 176.172C775.099 176.122 773.296 174.48 774.467 172.612C775.639 170.743 774.958 163.047 775.024 160.778C775.09 158.509 779.279 154.369 778.676 152.912L779.048 152.298L779.954 150.764C781.046 149.03 780.451 146.269 778.617 144.64L781.859 144.237L784.942 143.846C784.922 141.562 785.714 139.236 786.698 138.677L786.642 138.285L786.418 136.771C785.827 135.162 785.704 133.227 786.157 132.487C786.615 131.737 787.359 129.081 786.669 127.6L787.494 126.041L788.584 123.988C789.638 121.647 789.691 117.199 788.698 114.089L792.352 113.484L794.884 113.065C795.614 110.756 796.235 108.098 796.276 107.153C796.303 106.201 790.591 105.995 783.481 109.37C776.378 112.754 756.413 126.492 752.916 129.392C749.41 132.283 737.043 138.48 734.673 139.366C732.301 140.243 727.671 148.259 725.754 150.027C723.837 151.804 716.646 156.972 714.446 158.288C712.245 159.596 706.994 165.404 706.29 166.042C705.593 166.681 701.066 168.673 698.04 170.068L696.742 173.725L696.26 175.098C694.441 176.021 684.191 182.888 673.466 190.366L665.959 200.396L664.287 202.63C661.94 204.762 658.724 207.094 657.129 207.802C655.547 208.517 651.54 213.99 650.38 215.245C649.22 216.491 645.308 220.791 644.289 221.984C643.263 223.178 640.008 226.622 639.442 227.129C638.87 227.636 635.877 229.496 634.224 230.459L631.406 234.815C630.654 235.983 629.489 236.937 628.334 237.624L625.077 239.58C622.653 242.982 617.233 248.27 613.043 251.346L610.258 255.547L609.636 256.477C608.661 257.257 606.72 259.249 605.324 260.916C603.933 262.581 597.325 268.437 594.917 271.358L592.287 273.341L589.367 275.528C586.565 278.384 582.432 282.614 580.198 284.927C577.958 287.242 570.389 293.033 569.676 294.259C568.955 295.476 567.04 298.476 568.992 300.329L564.565 300.563C563.228 300.626 562.085 302.668 560.721 303.577C559.144 304.628 557.228 305.146 555.81 306.39C554.508 307.53 553.885 310.375 552.603 310.662C548.078 311.653 546.329 316.218 543.108 318.817C536.83 323.886 530.8 329.332 524.767 334.76L521.847 337.391C518.777 340.476 510.456 346.726 503.344 351.299L498.324 357.609L496.743 359.601C494.468 359.561 490.415 361.131 487.73 363.085C485.046 365.047 476.943 370.18 475.059 369.222L474.299 372.404C473.669 375.09 471.016 374.212 469.411 375.196L467.8 376.189C466.274 377.748 457.843 383.685 449.066 389.382L440.242 392.939L438.216 393.755C435.946 394.468 433.192 395.42 432.091 395.87C430.992 396.329 424.624 398.662 420.274 399.808C415.921 400.936 402.45 402.495 400.209 402.522C397.975 402.558 390.294 399.454 387.737 398.414L386.7 396.577L381.311 387.058C374.286 377.471 366.864 366.02 364.83 361.598L363.035 357.535L361.195 353.38C361.508 348.846 361.219 343.883 360.555 342.354C359.884 340.817 359.312 334.533 359.108 331.909C358.907 329.266 359.338 321.862 358.332 320.678C357.334 319.501 360.219 313.754 360.758 311.31L361.044 308.951C361.374 306.277 361.347 303.532 361.845 300.916L362.279 298.609C363.167 296.183 364.2 291.797 364.575 288.877L365.223 286.33C365.589 284.901 366.472 283.548 367.392 282.438C369.042 280.438 368.975 278.186 369.231 275.592C369.703 270.638 371.092 265.719 372.778 261.117C373.818 258.264 376.206 256.091 377.809 253.467C378.991 251.535 376.392 247.521 380.593 246.926C381.042 246.86 381.074 243.514 381.201 241.681L381.228 241.279C380.893 240.825 382.004 237.971 383.694 234.964C385.387 231.939 390.554 222.117 390.996 219.464C391.437 216.811 397.621 209.377 398.938 205.416L399.661 201.636C399.887 200.473 399.704 198.626 400.305 198.239C404.347 195.679 403.866 190.926 404.97 186.903L405.031 186.674Z" fill="#9369F1"/>
</svg>
