<svg width="234" height="223" viewBox="0 0 234 223" fill="none" xmlns="http://www.w3.org/2000/svg">
<path d="M184.883 144.231C183.426 141.223 183.993 137.627 186.304 135.212L223.122 96.7547C227.627 92.0495 224.921 84.2211 218.472 83.3024L170.051 76.4037C166.852 75.9479 164.242 73.6126 163.434 70.4841L149.019 14.6695C147.411 8.44369 139.487 6.56271 135.252 11.4016L96.3723 55.831C94.3476 58.1447 91.1761 59.0933 88.2134 58.2714L41.1753 45.222C34.7168 43.4303 29.0502 49.899 31.6764 56.0655L50.3571 99.9292C51.711 103.108 50.8707 106.797 48.2737 109.077L12.9868 140.045C7.864 144.54 10.3502 152.974 17.0927 153.971L77.2405 162.872C80.4437 163.346 83.0453 165.704 83.8306 168.845L93.5412 207.688C95.1242 214.021 103.215 215.894 107.421 210.902L133.054 180.474C135.091 178.057 138.36 177.065 141.396 177.944L193.706 193.082C200.359 195.008 206.149 188.144 203.13 181.911L184.883 144.231Z" fill="#FE93F1"/>
<path d="M128.848 114.977C127.997 120.79 122.99 125.255 116.939 125.255C110.942 125.255 105.968 120.868 105.053 115.128C110.337 115.266 123.004 115.078 128.848 114.977Z" fill="white"/>
<path d="M106.072 93.852C106.072 101.862 99.579 108.355 91.569 108.355C86.619 108.355 82.249 105.876 79.632 102.091C78.013 99.751 77.066 96.913 77.066 93.853C77.066 85.843 83.559 79.35 91.569 79.35C93.776 79.35 95.8681 79.843 97.7401 80.725C102.663 83.043 106.072 88.049 106.072 93.852Z" fill="white"/>
<path d="M97.7401 80.725C96.7021 85.455 94.851 90.428 91.569 93.853C87.481 98.12 83.076 100.646 79.632 102.091C78.013 99.751 77.066 96.913 77.066 93.853C77.066 85.843 83.559 79.35 91.569 79.35C93.775 79.35 95.8681 79.843 97.7401 80.725Z" fill="black"/>
<path d="M163.899 103.347C163.899 111.357 157.406 117.85 149.396 117.85C144.446 117.85 140.076 115.371 137.459 111.586C135.84 109.246 134.893 106.408 134.893 103.348C134.893 95.338 141.386 88.845 149.396 88.845C151.602 88.845 153.695 89.338 155.567 90.22C160.491 92.537 163.899 97.544 163.899 103.347Z" fill="white"/>
<path d="M155.245 90.375C154.207 95.105 152.356 100.078 149.074 103.503C144.986 107.77 140.581 110.296 137.137 111.741C135.518 109.401 134.571 106.563 134.571 103.503C134.571 95.493 141.064 89 149.074 89C151.281 89 153.373 89.493 155.245 90.375Z" fill="black"/>
</svg>
