<svg width="266" height="202" viewBox="0 0 266 202" fill="none" xmlns="http://www.w3.org/2000/svg">
<path d="M257.28 189.267C260.781 194.586 256.965 201.665 250.597 201.665H14.842C8.47394 201.665 4.65855 194.586 8.15938 189.267L126.037 10.1542C129.198 5.35148 136.242 5.35148 139.403 10.1542L257.28 189.267Z" fill="#AFEE01"/>
<path d="M173.237 112.593C179.732 106.098 179.732 95.5677 173.237 89.0729C166.742 82.5781 156.212 82.5781 149.717 89.0729C143.222 95.5677 143.222 106.098 149.717 112.593C156.212 119.087 166.742 119.087 173.237 112.593Z" fill="white"/>
<path d="M114.657 112.066C121.152 105.571 121.152 95.0411 114.657 88.5463C108.163 82.0515 97.6324 82.0514 91.1376 88.5463C84.6428 95.0411 84.6428 105.571 91.1376 112.066C97.6324 118.561 108.163 118.561 114.657 112.066Z" fill="white"/>
<mask id="mask0_95_738" style="mask-type:luminance" maskUnits="userSpaceOnUse" x="86" y="83" width="34" height="34">
<path d="M114.657 112.066C121.152 105.571 121.152 95.0411 114.657 88.5463C108.163 82.0515 97.6324 82.0514 91.1376 88.5463C84.6428 95.0411 84.6428 105.571 91.1376 112.066C97.6324 118.561 108.163 118.561 114.657 112.066Z" fill="white"/>
</mask>
<g mask="url(#mask0_95_738)">
<path d="M126.47 123.877C139.488 123.877 150.041 113.324 150.041 100.306C150.041 87.2881 139.488 76.735 126.47 76.735C113.452 76.735 102.899 87.2881 102.899 100.306C102.899 113.324 113.452 123.877 126.47 123.877Z" fill="black"/>
</g>
<path d="M174.657 112.066C181.152 105.571 181.152 95.0411 174.657 88.5463C168.163 82.0515 157.632 82.0514 151.138 88.5463C144.643 95.0411 144.643 105.571 151.138 112.066C157.632 118.561 168.163 118.561 174.657 112.066Z" fill="white"/>
<mask id="mask1_95_738" style="mask-type:luminance" maskUnits="userSpaceOnUse" x="146" y="83" width="34" height="34">
<path d="M174.657 112.066C181.152 105.571 181.152 95.0411 174.657 88.5463C168.163 82.0515 157.632 82.0514 151.138 88.5463C144.643 95.0411 144.643 105.571 151.138 112.066C157.632 118.561 168.163 118.561 174.657 112.066Z" fill="white"/>
</mask>
<g mask="url(#mask1_95_738)">
<path d="M186.47 123.877C199.488 123.877 210.041 113.324 210.041 100.306C210.041 87.2881 199.488 76.735 186.47 76.735C173.452 76.735 162.899 87.2881 162.899 100.306C162.899 113.324 173.452 123.877 186.47 123.877Z" fill="black"/>
</g>
<path d="M144.194 115.899C144.194 122.93 139.057 128.631 132.721 128.631C126.384 128.631 121.246 122.931 121.246 115.899H144.194Z" fill="white"/>
</svg>
