<svg width="234" height="116" viewBox="0 0 234 116" fill="none" xmlns="http://www.w3.org/2000/svg">
<path d="M116.861 115.666C181.402 115.666 233.722 89.7733 233.722 57.833C233.722 25.8927 181.402 0 116.861 0C52.3205 0 0 25.8927 0 57.833C0 89.7733 52.3205 115.666 116.861 115.666Z" fill="#FB7768"/>
<path d="M85.3179 61.616C85.3179 69.833 79.4879 76.688 71.7399 78.272C70.6349 78.499 69.4899 78.617 68.3169 78.617C58.9269 78.617 51.3149 71.006 51.3149 61.616C51.3149 52.226 58.9269 44.615 68.3169 44.615C69.6509 44.615 70.9469 44.768 72.1919 45.059C79.7119 46.811 85.3179 53.56 85.3179 61.616Z" fill="white"/>
<path d="M85.318 61.6159C85.318 69.8329 79.4879 76.6879 71.7399 78.2719C66.2289 65.3359 69.1699 52.744 72.1909 45.059C79.7119 46.811 85.318 53.5599 85.318 61.6159Z" fill="black"/>
<path d="M185.981 54.893C185.981 63.11 180.151 69.965 172.403 71.549C171.297 71.775 170.153 71.894 168.98 71.894C159.59 71.894 151.977 64.283 151.977 54.893C151.977 45.503 159.59 37.892 168.98 37.892C170.313 37.892 171.61 38.045 172.854 38.336C180.375 40.087 185.981 46.836 185.981 54.893Z" fill="white"/>
<path d="M185.981 54.8929C185.981 63.1099 180.151 69.965 172.403 71.549C166.892 58.613 169.833 46.0199 172.854 38.3359C180.375 40.0869 185.981 46.8359 185.981 54.8929Z" fill="black"/>
<path d="M115.098 72.066C109.986 72.066 105.733 69.713 102.716 65.187C100.224 61.447 99.4739 57.57 99.4439 57.407C99.3289 56.796 99.7309 56.208 100.342 56.093C100.952 55.978 101.54 56.38 101.655 56.989C101.662 57.025 102.368 60.634 104.626 63.994C107.549 68.345 111.626 70.273 116.741 69.726C121.864 69.177 125.447 66.564 127.389 61.96C128.884 58.414 128.819 54.956 128.818 54.921C128.803 54.301 129.293 53.784 129.914 53.768C130.538 53.747 131.051 54.241 131.067 54.861C131.071 55.019 131.153 58.775 129.493 62.759C127.929 66.514 124.489 71.158 116.981 71.962C116.341 72.032 115.713 72.066 115.098 72.066Z" fill="black"/>
</svg>
