<svg width="106" height="106" viewBox="0 0 106 106" fill="none" xmlns="http://www.w3.org/2000/svg">
<g clip-path="url(#clip0_58_1084)">
<mask id="mask0_58_1084" style="mask-type:luminance" maskUnits="userSpaceOnUse" x="0" y="0" width="106" height="106">
<path d="M106 0H0V106H106V0Z" fill="white"/>
</mask>
<g mask="url(#mask0_58_1084)">
<path fill-rule="evenodd" clip-rule="evenodd" d="M56.7858 2.12C56.7858 0.949156 55.8366 0 54.6658 0H51.3343C50.1634 0 49.2143 0.949156 49.2143 2.12V22.6177C49.2143 24.9478 46.0016 25.5723 45.1287 23.4118L37.4501 4.40672C37.0115 3.32113 35.7758 2.79665 34.6903 3.23525L31.6014 4.48323C30.5159 4.92183 29.9914 6.15743 30.4299 7.24303L38.6161 27.5043C39.4812 29.6456 36.7844 31.4306 35.1513 29.7976L19.6993 14.3455C18.8714 13.5176 17.5291 13.5176 16.7011 14.3455L14.3455 16.7011C13.5176 17.5291 13.5176 18.8714 14.3455 19.6993L28.2214 33.5752C29.8778 35.2316 28.0202 37.9548 25.8735 37.0169L7.89143 29.1604C6.8185 28.6916 5.56876 29.1814 5.09999 30.2543L3.7662 33.3071C3.29744 34.38 3.78719 35.6297 4.86011 36.0985L25.5809 45.1516C27.6859 46.0713 27.0293 49.2143 24.7321 49.2143H2.12C0.949156 49.2143 0 50.1634 0 51.3343V54.6658C0 55.8366 0.949156 56.7858 2.12 56.7858H24.732C27.0292 56.7858 27.6858 59.9287 25.5808 60.8482L4.86013 69.9017C3.78722 70.3702 3.29746 71.62 3.76623 72.6927L5.10001 75.7455C5.56876 76.8187 6.81856 77.3084 7.89143 76.8394L25.8735 68.9832C28.0202 68.0451 29.8778 70.7682 28.2214 72.425L14.3455 86.3004C13.5176 87.1288 13.5176 88.4708 14.3455 89.2986L16.7012 91.6545C17.5291 92.4823 18.8714 92.4823 19.6993 91.6545L35.1513 76.2023C36.7844 74.5694 39.4812 76.3544 38.6161 78.4956L30.4299 98.757C29.9914 99.8425 30.5158 101.078 31.6014 101.517L34.6902 102.765C35.7758 103.203 37.0114 102.679 37.4501 101.593L45.1287 82.5883C46.0016 80.4275 49.2143 81.0524 49.2143 83.3822V103.88C49.2143 105.051 50.1634 106 51.3343 106H54.6658C55.8366 106 56.7858 105.051 56.7858 103.88V83.3822C56.7858 81.0524 59.9986 80.4275 60.8716 82.5883L68.5497 101.593C68.9885 102.679 70.2239 103.203 71.3099 102.765L74.3987 101.517C75.4842 101.078 76.0089 99.8425 75.5701 98.757L67.3842 78.4956C66.5187 76.3544 69.2153 74.5694 70.8488 76.2023L86.3004 91.6545C87.1288 92.4823 88.4708 92.4823 89.2986 91.6545L91.6545 89.2986C92.4823 88.4708 92.4823 87.1288 91.6545 86.3004L77.7786 72.425C76.1223 70.7682 77.98 68.0451 80.1265 68.9832L98.1083 76.8394C99.1815 77.3084 100.431 76.8187 100.9 75.7455L102.234 72.6927C102.702 71.62 102.213 70.3702 101.14 69.9017L80.419 60.8482C78.3144 59.9287 78.9705 56.7858 81.2681 56.7858H103.88C105.051 56.7858 106 55.8366 106 54.6658V51.3343C106 50.1634 105.051 49.2143 103.88 49.2143H81.2681C78.9705 49.2143 78.3139 46.0713 80.419 45.1516L101.14 36.0985C102.213 35.6297 102.702 34.3799 102.234 33.3071L100.9 30.2543C100.431 29.1814 99.1815 28.6916 98.1083 29.1604L80.1265 37.0169C77.98 37.9548 76.1223 35.2316 77.7786 33.5752L91.6545 19.6993C92.4823 18.8713 92.4823 17.5291 91.6545 16.7011L89.2986 14.3455C88.4708 13.5175 87.1288 13.5175 86.3004 14.3455L70.8488 29.7975C69.2153 31.4305 66.5187 29.6455 67.3842 27.5042L75.5701 7.24303C76.0089 6.15743 75.4842 4.92183 74.3987 4.48323L71.3099 3.23525C70.2239 2.79665 68.9885 3.32113 68.5497 4.40672L60.8716 23.4118C59.9986 25.5723 56.7858 24.9478 56.7858 22.6177V2.12Z" fill="#FFD002"/>
</g>
</g>
<defs>
<clipPath id="clip0_58_1084">
<rect width="106" height="106" fill="white"/>
</clipPath>
</defs>
</svg>
