<svg width="106" height="106" viewBox="0 0 106 106" fill="none" xmlns="http://www.w3.org/2000/svg">
<g clip-path="url(#clip0_58_1086)">
<mask id="mask0_58_1086" style="mask-type:luminance" maskUnits="userSpaceOnUse" x="0" y="0" width="106" height="106">
<path d="M106 0H0V106H106V0Z" fill="white"/>
</mask>
<g mask="url(#mask0_58_1086)">
<path fill-rule="evenodd" clip-rule="evenodd" d="M54.6658 0C55.8366 0 56.7858 0.949156 56.7858 2.12V22.6177C56.7858 24.9478 59.9986 25.5723 60.8716 23.4118L68.5497 4.40672C68.9885 3.32113 70.2239 2.79665 71.3099 3.23525L74.3987 4.48323C75.4842 4.92183 76.0089 6.15743 75.5701 7.24303L67.3842 27.5042C66.5187 29.6455 69.2153 31.4305 70.8488 29.7975L86.3004 14.3455C87.1288 13.5175 88.4708 13.5175 89.2986 14.3455L91.6545 16.7011C92.4823 17.5291 92.4823 18.8713 91.6545 19.6993L77.7786 33.5752C76.1223 35.2316 77.98 37.9548 80.1265 37.0169L98.1083 29.1604C99.1815 28.6916 100.431 29.1814 100.9 30.2543L102.234 33.3071C102.702 34.38 102.213 35.6297 101.14 36.0985L80.419 45.1516C78.3139 46.0713 78.9705 49.2143 81.2675 49.2143H103.88C105.051 49.2143 106 50.1634 106 51.3343V54.6658C106 55.8366 105.051 56.7858 103.88 56.7858H81.2681C78.9705 56.7858 78.3144 59.9287 80.419 60.8482L101.14 69.9017C102.213 70.3702 102.702 71.62 102.234 72.6927L100.9 75.7455C100.431 76.8187 99.1815 77.3084 98.1083 76.8394L80.1265 68.9832C77.98 68.0451 76.1223 70.7682 77.7786 72.425L91.6545 86.3004C92.4823 87.1288 92.4823 88.4708 91.6545 89.2986L89.2986 91.6545C88.4708 92.4823 87.1288 92.4823 86.3004 91.6545L70.8488 76.2023C69.2153 74.5694 66.5187 76.3544 67.3842 78.4956L75.5701 98.757C76.0089 99.8425 75.4842 101.078 74.3987 101.517L71.3099 102.765C70.2239 103.203 68.9885 102.679 68.5497 101.593L60.8716 82.5883C59.9986 80.4275 56.7858 81.0524 56.7858 83.3822V103.88C56.7858 105.051 55.8366 106 54.6658 106H51.3343C50.1634 106 49.2143 105.051 49.2143 103.88V83.3822C49.2143 81.0524 46.0015 80.4275 45.1287 82.5883L37.4501 101.593C37.0114 102.679 35.7758 103.203 34.6902 102.765L31.6014 101.517C30.5158 101.078 29.9914 99.8425 30.4299 98.757L38.6161 78.4956C39.4812 76.3544 36.7844 74.5694 35.1513 76.2023L19.6993 91.6545C18.8714 92.4823 17.5291 92.4823 16.7012 91.6545L14.3455 89.2986C13.5176 88.4708 13.5176 87.1288 14.3455 86.3004L28.2214 72.4245C29.8778 70.7682 28.0202 68.0451 25.8735 68.9832L7.89143 76.8394C6.81856 77.3084 5.56876 76.8187 5.1 75.7455L3.76622 72.6927C3.29745 71.62 3.78721 70.3702 4.86012 69.9017L25.5808 60.8482C27.6858 59.9287 27.0292 56.7858 24.732 56.7858H2.12C0.949156 56.7858 0 55.8366 0 54.6658V51.3343C0 50.1634 0.949156 49.2143 2.12 49.2143H24.7321C27.0293 49.2143 27.6859 46.0713 25.5809 45.1516L4.86011 36.0985C3.78719 35.6297 3.29744 34.38 3.7662 33.3071L5.09999 30.2543C5.56876 29.1814 6.8185 28.6916 7.89143 29.1604L25.8735 37.0169C28.0202 37.9548 29.8778 35.2316 28.2214 33.5752L14.3455 19.6993C13.5176 18.8714 13.5176 17.5291 14.3455 16.7011L16.7011 14.3455C17.5291 13.5176 18.8714 13.5176 19.6993 14.3455L35.1513 29.7976C36.7844 31.4306 39.4812 29.6456 38.6161 27.5043L30.4299 7.24303C29.9914 6.15743 30.5159 4.92183 31.6014 4.48323L34.6903 3.23525C35.7758 2.79665 37.0115 3.32113 37.4501 4.40672L45.1287 23.4118C46.0015 25.5723 49.2143 24.9478 49.2143 22.6177V2.12C49.2143 0.949156 50.1634 0 51.3343 0H54.6658ZM53 75.7142C65.5446 75.7142 75.7142 65.5446 75.7142 53C75.7142 40.4553 65.5446 30.2857 53 30.2857C40.4553 30.2857 30.2857 40.4553 30.2857 53C30.2857 65.5446 40.4553 75.7142 53 75.7142Z" fill="#FFD002"/>
</g>
</g>
<defs>
<clipPath id="clip0_58_1086">
<rect width="106" height="106" fill="white"/>
</clipPath>
</defs>
</svg>
