<svg width="106" height="106" viewBox="0 0 106 106" fill="none" xmlns="http://www.w3.org/2000/svg">
<mask id="mask0_58_1255" style="mask-type:luminance" maskUnits="userSpaceOnUse" x="0" y="0" width="106" height="106">
<path d="M106 0H0V106H106V0Z" fill="white"/>
</mask>
<g mask="url(#mask0_58_1255)">
<path fill-rule="evenodd" clip-rule="evenodd" d="M58.3 0C61.2272 0 63.6 2.37289 63.6 5.3V14.614C63.6 19.3358 69.3086 21.7005 72.6476 18.3616L79.2334 11.7756C81.3036 9.70589 84.659 9.70589 86.7292 11.7756L94.2245 19.271C96.2941 21.3408 96.2941 24.6966 94.2245 26.7663L87.6381 33.3523C84.2997 36.6912 86.664 42.4 91.3858 42.4H100.7C103.627 42.4 106 44.7729 106 47.7V58.3C106 61.2272 103.627 63.6 100.7 63.6H91.3858C86.664 63.6 84.2997 69.3086 87.6381 72.6476L94.2245 79.2334C96.2941 81.3036 96.2941 84.659 94.2245 86.7292L86.7292 94.2245C84.659 96.2941 81.3036 96.2941 79.2334 94.2245L72.6476 87.6381C69.3086 84.2997 63.6 86.664 63.6 91.3858V100.7C63.6 103.627 61.2272 106 58.3 106H47.7C44.7729 106 42.4 103.627 42.4 100.7V91.3858C42.4 86.664 36.6912 84.2997 33.3523 87.6381L26.7663 94.2245C24.6966 96.2941 21.3408 96.2941 19.271 94.2245L11.7757 86.7292C9.70589 84.659 9.70589 81.3036 11.7757 79.2334L18.3617 72.6476C21.7005 69.3086 19.3358 63.6 14.614 63.6H5.3C2.37289 63.6 0 61.2272 0 58.3V47.7C0 44.7729 2.37289 42.4 5.3 42.4H14.614C19.3358 42.4 21.7005 36.6912 18.3617 33.3523L11.7757 26.7663C9.70589 24.6965 9.70589 21.3408 11.7757 19.271L19.271 11.7756C21.3408 9.70589 24.6966 9.70589 26.7663 11.7756L33.3523 18.3616C36.6912 21.7005 42.4 19.3358 42.4 14.614V5.3C42.4 2.37289 44.7729 0 47.7 0H58.3ZM53 79.5C67.6354 79.5 79.5 67.6354 79.5 53C79.5 38.3645 67.6354 26.5 53 26.5C38.3645 26.5 26.5 38.3645 26.5 53C26.5 67.6354 38.3645 79.5 53 79.5Z" fill="#FFD002"/>
</g>
</svg>
